<svg width="172" height="38" viewBox="0 0 172 38" fill="none" xmlns="http://www.w3.org/2000/svg">
<g filter="url(#filter0_dd_27_1953)">
<rect x="3" y="2" width="32" height="32" rx="8" fill="#45D79A"/>
<rect x="14" y="4.5" width="12.9537" height="1" rx="0.5" fill="white"/>
<rect x="13" y="6.5" width="12.9537" height="1" rx="0.5" fill="white"/>
<rect x="12" y="8.5" width="12.9537" height="1" rx="0.5" fill="white"/>
<rect x="11" y="10.5" width="12.9537" height="1" rx="0.5" fill="white"/>
<rect x="9" y="14.5" width="17" height="1" rx="0.5" fill="white"/>
<rect x="16" y="16.5" width="9" height="1" rx="0.5" fill="white"/>
<rect x="15.5" y="18.5" width="8" height="1" rx="0.5" fill="white"/>
<rect x="15" y="20.5" width="7" height="1" rx="0.5" fill="white"/>
<rect x="14.5" y="22.5" width="6" height="1" rx="0.5" fill="white"/>
<rect x="14" y="24.5" width="5" height="1" rx="0.5" fill="white"/>
<rect x="13.5" y="26.5" width="4" height="1" rx="0.5" fill="white"/>
<rect x="13" y="28.5" width="3" height="1" rx="0.5" fill="white"/>
<rect x="12.5" y="30.5" width="2" height="1" rx="0.5" fill="white"/>
<rect x="10" y="12.5" width="17" height="1" rx="0.5" fill="white"/>
</g>
<path d="M65.0186 20.1328H55.3975V17.0625H65.0186V20.1328ZM66.3896 27H55.3975C54.9756 27 54.5146 26.9258 54.0146 26.7773C53.5146 26.6289 53.0498 26.3867 52.6201 26.0508C52.1982 25.707 51.8428 25.2656 51.5537 24.7266C51.2725 24.1797 51.1318 23.5117 51.1318 22.7227V11.7305C51.1318 11.5195 51.1709 11.3203 51.249 11.1328C51.3271 10.9453 51.4326 10.7812 51.5654 10.6406C51.7061 10.5 51.8701 10.3906 52.0576 10.3125C52.2451 10.2344 52.4482 10.1953 52.667 10.1953H66.3896V13.2422H54.1787V22.7227C54.1787 23.1211 54.2842 23.4258 54.4951 23.6367C54.7061 23.8477 55.0146 23.9531 55.4209 23.9531H66.3896V27Z" fill="white"/>
<path d="M85.8311 27H82.7842V22.875H72.0732V27H69.0264V18.5977C69.0264 17.3711 69.2373 16.2422 69.6592 15.2109C70.0811 14.1797 70.667 13.293 71.417 12.5508C72.167 11.8086 73.0537 11.2305 74.0771 10.8164C75.1006 10.4023 76.2178 10.1953 77.4287 10.1953H84.2959C84.5068 10.1953 84.7061 10.2344 84.8936 10.3125C85.0811 10.3906 85.2451 10.5 85.3857 10.6406C85.5264 10.7812 85.6357 10.9453 85.7139 11.1328C85.792 11.3203 85.8311 11.5195 85.8311 11.7305V27ZM72.0732 19.8281H82.7842V13.2422H77.4287C77.335 13.2422 77.1357 13.2578 76.8311 13.2891C76.5342 13.3125 76.1865 13.3789 75.7881 13.4883C75.3975 13.5977 74.9834 13.7656 74.5459 13.9922C74.1084 14.2188 73.7061 14.5312 73.3389 14.9297C72.9717 15.3281 72.667 15.8281 72.4248 16.4297C72.1904 17.0234 72.0732 17.7461 72.0732 18.5977V19.8281Z" fill="white"/>
<path d="M105.53 22.0547C105.53 22.6562 105.452 23.1992 105.296 23.6836C105.147 24.1602 104.948 24.582 104.698 24.9492C104.448 25.3164 104.155 25.6289 103.819 25.8867C103.483 26.1445 103.136 26.3555 102.776 26.5195C102.417 26.6836 102.05 26.8047 101.675 26.8828C101.308 26.9609 100.96 27 100.632 27H88.8779V23.9531H100.632C101.218 23.9531 101.671 23.7812 101.991 23.4375C102.319 23.0938 102.483 22.6328 102.483 22.0547C102.483 21.7734 102.44 21.5156 102.354 21.2812C102.269 21.0469 102.144 20.8438 101.979 20.6719C101.823 20.5 101.628 20.3672 101.394 20.2734C101.167 20.1797 100.913 20.1328 100.632 20.1328H93.624C93.1318 20.1328 92.6006 20.0469 92.0303 19.875C91.46 19.6953 90.9287 19.4102 90.4365 19.0195C89.9521 18.6289 89.5459 18.1172 89.2178 17.4844C88.8975 16.8516 88.7373 16.0781 88.7373 15.1641C88.7373 14.25 88.8975 13.4805 89.2178 12.8555C89.5459 12.2227 89.9521 11.7109 90.4365 11.3203C90.9287 10.9219 91.46 10.6367 92.0303 10.4648C92.6006 10.2852 93.1318 10.1953 93.624 10.1953H103.995V13.2422H93.624C93.0459 13.2422 92.5928 13.418 92.2646 13.7695C91.9443 14.1211 91.7842 14.5859 91.7842 15.1641C91.7842 15.75 91.9443 16.2148 92.2646 16.5586C92.5928 16.8945 93.0459 17.0625 93.624 17.0625H100.655C100.983 17.0703 101.331 17.1172 101.698 17.2031C102.065 17.2812 102.429 17.4062 102.788 17.5781C103.155 17.75 103.503 17.9688 103.831 18.2344C104.159 18.4922 104.448 18.8047 104.698 19.1719C104.956 19.5391 105.159 19.9609 105.308 20.4375C105.456 20.9141 105.53 21.4531 105.53 22.0547Z" fill="white"/>
<path d="M123.905 15.8203C123.905 16.5156 123.815 17.1367 123.636 17.6836C123.464 18.2305 123.233 18.7148 122.944 19.1367C122.655 19.5508 122.315 19.9062 121.925 20.2031C121.542 20.5 121.144 20.7461 120.729 20.9414C120.315 21.1289 119.894 21.2656 119.464 21.3516C119.042 21.4375 118.644 21.4805 118.269 21.4805H117.038V27H113.968V21.4805H112.749C112.374 21.4805 111.972 21.4375 111.542 21.3516C111.12 21.2656 110.698 21.1289 110.276 20.9414C109.862 20.7461 109.464 20.5 109.081 20.2031C108.698 19.9062 108.358 19.5508 108.062 19.1367C107.772 18.7148 107.538 18.2305 107.358 17.6836C107.187 17.1289 107.101 16.5078 107.101 15.8203V10.1953H110.147V15.8203C110.147 16.2188 110.21 16.5781 110.335 16.8984C110.46 17.2109 110.636 17.4805 110.862 17.707C111.089 17.9336 111.362 18.1094 111.683 18.2344C112.011 18.3516 112.374 18.4102 112.772 18.4102H118.269C118.558 18.3633 118.854 18.3047 119.159 18.2344C119.464 18.1562 119.741 18.0273 119.991 17.8477C120.241 17.668 120.448 17.418 120.612 17.0977C120.776 16.7773 120.858 16.3516 120.858 15.8203V10.1953H123.905V15.8203Z" fill="white"/>
<path d="M128.851 25.4648C128.851 25.6758 128.808 25.875 128.722 26.0625C128.644 26.2422 128.534 26.4023 128.394 26.543C128.261 26.6758 128.101 26.7812 127.913 26.8594C127.733 26.9375 127.542 26.9766 127.339 26.9766C127.128 26.9766 126.929 26.9375 126.741 26.8594C126.562 26.7812 126.401 26.6758 126.261 26.543C126.128 26.4023 126.022 26.2422 125.944 26.0625C125.866 25.875 125.827 25.6758 125.827 25.4648C125.827 25.2617 125.866 25.0703 125.944 24.8906C126.022 24.7031 126.128 24.543 126.261 24.4102C126.401 24.2695 126.562 24.1602 126.741 24.082C126.929 23.9961 127.128 23.9531 127.339 23.9531C127.542 23.9531 127.733 23.9961 127.913 24.082C128.101 24.1602 128.261 24.2695 128.394 24.4102C128.534 24.543 128.644 24.7031 128.722 24.8906C128.808 25.0703 128.851 25.2617 128.851 25.4648Z" fill="white"/>
<path d="M151.031 19.6758C151.031 20.7419 150.844 21.7225 150.47 22.6177C150.104 23.5129 149.595 24.286 148.944 24.937C148.293 25.5799 147.52 26.0845 146.625 26.4507C145.729 26.8169 144.757 27 143.707 27H135.138C134.91 27 134.698 26.9593 134.503 26.8779C134.308 26.7965 134.137 26.6867 133.99 26.5483C133.852 26.4019 133.742 26.231 133.661 26.0356C133.579 25.8403 133.539 25.6287 133.539 25.4009V11.0942C133.539 10.8745 133.579 10.667 133.661 10.4717C133.742 10.2764 133.852 10.1055 133.99 9.95898C134.137 9.8125 134.308 9.69857 134.503 9.61719C134.698 9.53581 134.91 9.49512 135.138 9.49512H143.707C144.757 9.49512 145.729 9.67822 146.625 10.0444C147.52 10.4106 148.293 10.9193 148.944 11.5703C149.595 12.2132 150.104 12.9863 150.47 13.8896C150.844 14.7848 151.031 15.7614 151.031 16.8193V19.6758ZM147.857 16.8193C147.857 16.2008 147.756 15.6353 147.552 15.1226C147.357 14.6099 147.076 14.1745 146.71 13.8164C146.344 13.4502 145.904 13.1694 145.392 12.9741C144.887 12.7707 144.326 12.6689 143.707 12.6689H136.712V23.8262H143.707C144.326 23.8262 144.887 23.7285 145.392 23.5332C145.904 23.3298 146.344 23.049 146.71 22.6909C147.076 22.3247 147.357 21.8893 147.552 21.3848C147.756 20.8721 147.857 20.3024 147.857 19.6758V16.8193Z" fill="#40D492"/>
<path d="M161.651 15.7451L166.998 9.49512H171.332L163.8 18.272L171.283 27H166.974L161.651 20.7988L156.354 27H152.032L159.503 18.272L152.008 9.49512H156.305L161.651 15.7451Z" fill="#40D492"/>
<defs>
<filter id="filter0_dd_27_1953" x="0" y="0" width="38" height="38" filterUnits="userSpaceOnUse" color-interpolation-filters="sRGB">
<feFlood flood-opacity="0" result="BackgroundImageFix"/>
<feColorMatrix in="SourceAlpha" type="matrix" values="0 0 0 0 0 0 0 0 0 0 0 0 0 0 0 0 0 0 127 0" result="hardAlpha"/>
<feOffset dy="1"/>
<feGaussianBlur stdDeviation="1"/>
<feColorMatrix type="matrix" values="0 0 0 0 0.0627451 0 0 0 0 0.0941176 0 0 0 0 0.156863 0 0 0 0.06 0"/>
<feBlend mode="normal" in2="BackgroundImageFix" result="effect1_dropShadow_27_1953"/>
<feColorMatrix in="SourceAlpha" type="matrix" values="0 0 0 0 0 0 0 0 0 0 0 0 0 0 0 0 0 0 127 0" result="hardAlpha"/>
<feOffset dy="1"/>
<feGaussianBlur stdDeviation="1.5"/>
<feColorMatrix type="matrix" values="0 0 0 0 0.0627451 0 0 0 0 0.0941176 0 0 0 0 0.156863 0 0 0 0.1 0"/>
<feBlend mode="normal" in2="effect1_dropShadow_27_1953" result="effect2_dropShadow_27_1953"/>
<feBlend mode="normal" in="SourceGraphic" in2="effect2_dropShadow_27_1953" result="shape"/>
</filter>
</defs>
</svg>
