<svg width="32" height="32" viewBox="0 0 32 32" fill="none" xmlns="http://www.w3.org/2000/svg">
<rect width="32" height="32" rx="8" fill="#45D79A"/>
<rect x="11" y="2.5" width="12.9537" height="1" rx="0.5" fill="white"/>
<rect x="10" y="4.5" width="12.9537" height="1" rx="0.5" fill="white"/>
<rect x="9" y="6.5" width="12.9537" height="1" rx="0.5" fill="white"/>
<rect x="8" y="8.5" width="12.9537" height="1" rx="0.5" fill="white"/>
<rect x="6" y="12.5" width="17" height="1" rx="0.5" fill="white"/>
<rect x="13" y="14.5" width="9" height="1" rx="0.5" fill="white"/>
<rect x="12.5" y="16.5" width="8" height="1" rx="0.5" fill="white"/>
<rect x="12" y="18.5" width="7" height="1" rx="0.5" fill="white"/>
<rect x="11.5" y="20.5" width="6" height="1" rx="0.5" fill="white"/>
<rect x="11" y="22.5" width="5" height="1" rx="0.5" fill="white"/>
<rect x="10.5" y="24.5" width="4" height="1" rx="0.5" fill="white"/>
<rect x="10" y="26.5" width="3" height="1" rx="0.5" fill="white"/>
<rect x="9.5" y="28.5" width="2" height="1" rx="0.5" fill="white"/>
<rect x="7" y="10.5" width="17" height="1" rx="0.5" fill="white"/>
</svg>
